HIERARCHY
ROOT Hips
{
	OFFSET -0.001795 -0.223333 0.028219
	CHANNELS 6 Xposition Yposition Zposition Zrotation Yrotation Xrotation 
	JOINT LeftUpLeg
	{
		OFFSET 0.069520 -0.091406 -0.006815
		CHANNELS 3 Zrotation Yrotation Xrotation
		JOINT LeftLeg
		{
			OFFSET 0.034277 -0.375199 -0.004496
			CHANNELS 3 Zrotation Yrotation Xrotation
			JOINT LeftFoot
			{
				OFFSET -0.013596 -0.397961 -0.043693
				CHANNELS 3 Zrotation Yrotation Xrotation
				JOINT LeftToe
				{
					OFFSET 0.026358 -0.055791 0.119288
					CHANNELS 3 Zrotation Yrotation Xrotation
					End Site
					{
						OFFSET 0.000000 0.000000 0.000000
					}
				}
			}
		}
	}
	JOINT RightUpLeg
	{
		OFFSET -0.067670 -0.090522 -0.004320
		CHANNELS 3 Zrotation Yrotation Xrotation
		JOINT RightLeg
		{
			OFFSET -0.038290 -0.382569 -0.008850
			CHANNELS 3 Zrotation Yrotation Xrotation
			JOINT RightFoot
			{
				OFFSET 0.015774 -0.398415 -0.042312
				CHANNELS 3 Zrotation Yrotation Xrotation
				JOINT RightToe
				{
					OFFSET -0.025372 -0.048144 0.123348
					CHANNELS 3 Zrotation Yrotation Xrotation
					End Site
					{
						OFFSET 0.000000 0.000000 0.000000
					}
				}
			}
		}
	}
	JOINT Spine
	{
		OFFSET -0.002533 0.108963 -0.026696
		CHANNELS 3 Zrotation Yrotation Xrotation
		JOINT Spine1
		{
			OFFSET 0.005487 0.135180 0.001092
			CHANNELS 3 Zrotation Yrotation Xrotation
			JOINT Spine2
			{
				OFFSET 0.001457 0.052922 0.025425
				CHANNELS 3 Zrotation Yrotation Xrotation
				JOINT Neck
				{
					OFFSET -0.002778 0.213870 -0.042857
					CHANNELS 3 Zrotation Yrotation Xrotation
					JOINT Head
					{
						OFFSET 0.005152 0.064970 0.051349
						CHANNELS 3 Zrotation Yrotation Xrotation
						End Site
						{
							OFFSET 0.000000 0.000000 0.000000
						}
					}
				}
				JOINT LeftShoulder
				{
					OFFSET 0.078845 0.121749 -0.034090
					CHANNELS 3 Zrotation Yrotation Xrotation
					JOINT LeftArm
					{
						OFFSET 0.090977 0.030469 -0.008868
						CHANNELS 3 Zrotation Yrotation Xrotation
						JOINT LeftForeArm
						{
							OFFSET 0.259612 -0.012772 -0.027456
							CHANNELS 3 Zrotation Yrotation Xrotation
							JOINT LeftHand
							{
								OFFSET 0.249234 0.008986 -0.001171
								CHANNELS 3 Zrotation Yrotation Xrotation
								End Site
								{
									OFFSET 0.000000 0.000000 0.000000
								}
							}
						}
					}
				}
				JOINT RightShoulder
				{
					OFFSET -0.081759 0.118833 -0.038615
					CHANNELS 3 Zrotation Yrotation Xrotation
					JOINT RightArm
					{
						OFFSET -0.096012 0.032551 -0.009143
						CHANNELS 3 Zrotation Yrotation Xrotation
						JOINT RightForeArm
						{
							OFFSET -0.253742 -0.013329 -0.021401
							CHANNELS 3 Zrotation Yrotation Xrotation
							JOINT RightHand
							{
								OFFSET -0.255298 0.007772 -0.005559
								CHANNELS 3 Zrotation Yrotation Xrotation
								End Site
								{
									OFFSET 0.000000 0.000000 0.000000
								}
							}
						}
					}
				}
			}
		}
	}
}
MOTION
Frames: 10
Frame Time: 0.050000
0.015526 0.946937 -0.030780 0.754695 -10.292614 5.797326 4.244570 -0.188004 -2.870531 0.524983 0.114883 -4.659597 -0.279395 2.819713 11.946688 0.000000 0.000000 0.000000 -4.286333 0.553610 -5.059583 -3.729312 0.133316 -2.700097 2.423626 -1.199421 10.790323 0.000000 0.000000 0.000000 4.074333 0.372231 -5.553745 1.046409 -0.453769 -3.040543 -8.794042 5.458397 2.614120 12.675639 -7.126225 -12.410860 0.000000 0.000000 0.000000 -1.006323 -9.833164 3.278612 -31.943150 -39.759731 6.186855 79.982709 -35.972492 -28.489421 0.000000 0.000000 0.000000 2.517297 -2.228326 -0.994263 50.906715 26.146655 6.542014 -107.812870 41.315818 -47.645416 0.000000 0.000000 0.000000 
0.015344 0.946976 -0.032762 0.518775 -10.977645 5.669500 4.574627 -0.158939 -2.647257 0.346722 0.131842 -4.719789 0.038920 3.287597 12.006876 0.000000 0.000000 0.000000 -4.267894 0.582950 -5.469155 -3.324832 0.141157 -2.118376 2.726986 -0.654370 10.717853 0.000000 0.000000 0.000000 3.766631 0.381078 -5.675021 1.120299 -0.494638 -2.490784 -8.588528 5.565648 2.454744 12.689745 -7.379519 -11.427165 0.000000 0.000000 0.000000 1.208648 -11.923784 4.009458 -33.095479 -43.060570 7.467842 86.630800 -42.487157 -37.654409 0.000000 0.000000 0.000000 1.872349 0.760356 0.147132 51.290382 29.958366 8.366136 -113.035303 46.206519 -58.412378 0.000000 0.000000 0.000000 
0.014829 0.947079 -0.034041 0.242910 -10.760480 5.610424 5.047451 -0.150811 -2.722458 0.163699 0.141661 -4.570953 -0.060456 3.141820 11.958896 0.000000 0.000000 0.000000 -3.891681 0.583353 -5.604384 -3.341660 0.169858 -1.726809 2.637558 -0.796243 10.710040 0.000000 0.000000 0.000000 3.608411 0.366405 -5.564365 1.233312 -0.544659 -2.321161 -8.238465 5.419008 2.561744 13.173216 -7.748995 -11.280304 0.000000 0.000000 0.000000 1.783743 -13.803008 4.619702 -33.217393 -46.794754 8.623479 95.550957 -49.818821 -50.872128 0.000000 0.000000 0.000000 1.370620 4.297124 1.453123 50.262711 34.202343 10.082606 -123.501833 49.872145 -73.870650 0.000000 0.000000 0.000000 
0.013959 0.947384 -0.034794 -0.105510 -11.200422 5.520402 5.707906 -0.100039 -2.165008 -0.293644 0.203899 -5.162394 0.077760 3.385215 12.206509 0.000000 0.000000 0.000000 -3.528205 0.559203 -5.334543 -3.243631 0.133370 -2.141362 2.944304 -0.400305 10.969156 0.000000 0.000000 0.000000 3.536421 0.390060 -5.803769 1.556125 -0.699724 -1.121328 -8.438591 5.409684 1.760653 12.680282 -7.483567 -10.845720 0.000000 0.000000 0.000000 4.537926 -15.611552 5.093385 -33.677921 -50.334440 9.950076 102.175974 -54.146858 -60.968843 0.000000 0.000000 0.000000 -1.076873 7.159266 2.497162 49.851091 40.106257 12.854153 -126.994062 51.641820 -80.424838 0.000000 0.000000 0.000000 
0.012867 0.947469 -0.035201 -0.407281 -11.262601 5.573892 5.959163 -0.098676 -2.309862 -0.035269 0.171354 -4.887693 0.151147 3.482311 12.129561 0.000000 0.000000 0.000000 -2.945722 0.560171 -5.473687 -3.568886 0.170101 -1.933462 2.987266 -0.329976 10.969324 0.000000 0.000000 0.000000 3.485571 0.373961 -5.639371 1.482984 -0.663661 -1.513201 -8.437736 5.660621 1.946806 13.167097 -8.033332 -9.948484 0.000000 0.000000 0.000000 5.446073 -17.422473 5.585669 -32.520342 -52.491245 10.106387 106.905096 -55.443590 -66.768055 0.000000 0.000000 0.000000 -2.557816 8.888279 3.066984 48.631118 45.338006 14.978822 -128.487958 50.194792 -80.119423 0.000000 0.000000 0.000000 
0.011706 0.947871 -0.035293 -0.399230 -11.501465 5.703594 6.122554 -0.099083 -2.499190 -0.245104 0.182654 -4.709725 0.246435 3.648095 12.299231 0.000000 0.000000 0.000000 -2.777868 0.550651 -5.369792 -3.777510 0.148415 -2.444567 3.163820 -0.147482 11.188793 0.000000 0.000000 0.000000 3.639623 0.402548 -5.896506 1.182788 -0.529843 -1.029823 -8.911250 6.011644 1.150866 12.805312 -7.980853 -8.902076 0.000000 0.000000 0.000000 6.394986 -17.764621 5.640828 -32.150987 -53.134286 10.112291 106.744707 -53.433377 -64.649844 0.000000 0.000000 0.000000 -3.697516 9.999968 3.404101 46.481687 48.526761 15.788521 -125.766448 46.286827 -71.349553 0.000000 0.000000 0.000000 
0.010734 0.948464 -0.034945 -0.808711 -11.492643 5.873226 6.324086 -0.098480 -2.580998 0.281631 0.134852 -4.668372 0.273371 3.708468 12.383784 0.000000 0.000000 0.000000 -2.288364 0.546222 -5.404867 -3.747031 0.141813 -2.506171 3.249825 -0.133118 11.454612 0.000000 0.000000 0.000000 3.736262 0.423218 -6.108585 1.216776 -0.544554 -1.165008 -9.103040 6.184288 1.056776 13.019481 -8.399948 -7.783766 0.000000 0.000000 0.000000 6.642299 -17.429011 5.538356 -32.380807 -51.214834 9.587966 106.885608 -49.229773 -60.154028 0.000000 0.000000 0.000000 -4.517106 9.681246 3.278612 42.359008 49.566048 14.537485 -122.533276 41.250366 -60.588156 0.000000 0.000000 0.000000 
0.010097 0.949095 -0.034130 -0.992970 -11.382287 5.830213 6.320922 -0.092559 -2.403279 0.704860 0.102705 -4.761950 0.210074 3.647085 12.521627 0.000000 0.000000 0.000000 -1.607926 0.529083 -5.331517 -4.525902 0.208304 -2.347197 3.246883 -0.208163 11.581632 0.000000 0.000000 0.000000 3.473760 0.391330 -5.845818 1.440217 -0.643062 -1.596559 -9.072094 6.124721 0.770918 12.771787 -8.543328 -6.464504 0.000000 0.000000 0.000000 5.742508 -15.863004 5.135886 -33.501467 -48.362165 9.188450 106.537753 -45.066241 -55.125409 0.000000 0.000000 0.000000 -4.151755 8.520831 2.927005 40.833647 48.273698 13.353177 -121.193246 38.640568 -55.518169 0.000000 0.000000 0.000000 
0.009701 0.949542 -0.032994 -1.105636 -11.303380 5.898885 6.403732 -0.076249 -1.967499 0.801014 0.130566 -5.512255 0.112337 3.560692 12.811365 0.000000 0.000000 0.000000 -1.452956 0.484045 -4.854550 -4.548006 0.150941 -3.138240 3.327348 -0.240696 11.930807 0.000000 0.000000 0.000000 3.349623 0.395177 -5.939505 1.184190 -0.528316 -1.483996 -9.056160 5.895948 0.414417 12.467455 -8.315934 -6.417998 0.000000 0.000000 0.000000 4.929554 -13.518789 4.474646 -36.743605 -45.986297 9.651887 104.662220 -42.946339 -51.144947 0.000000 0.000000 0.000000 -3.526698 6.461019 2.285440 41.369628 45.352577 12.368485 -119.727301 35.995782 -50.448468 0.000000 0.000000 0.000000 
0.009575 0.949757 -0.031852 -0.948921 -11.208978 5.629247 6.147792 -0.065250 -1.558949 0.951946 0.127523 -5.681985 0.026078 3.454941 12.890807 0.000000 0.000000 0.000000 -1.854943 0.452762 -4.410636 -4.122615 0.113299 -3.298781 3.290652 -0.289673 11.936985 0.000000 0.000000 0.000000 2.966128 0.346500 -5.488315 1.244962 -0.551444 -2.318888 -8.935954 5.653069 0.836449 12.458948 -8.382059 -6.242173 0.000000 0.000000 0.000000 2.093479 -11.032826 3.715073 -39.684983 -41.669222 9.132152 106.900968 -44.211936 -54.230749 0.000000 0.000000 0.000000 -2.454586 3.762080 1.399218 43.892932 41.902321 11.775101 -119.812327 35.741442 -50.276969 0.000000 0.000000 0.000000 
